<?xml version="1.0" encoding="UTF-8"?>
<svg width="20px" height="20px" viewBox="0 0 20 20" version="1.1" xmlns="http://www.w3.org/2000/svg" xmlns:xlink="http://www.w3.org/1999/xlink">
    <!-- Generator: sketchtool 50 (54983) - http://www.bohemiancoding.com/sketch -->
    <title>C898E7F7-1CC9-4B3C-845B-BD3D1400A6B1</title>
    <desc>Created with sketchtool.</desc>
    <defs></defs>
    <g id="Home" stroke="none" stroke-width="1" fill="none" fill-rule="evenodd">
        <g id="Alfredo---Desktop" transform="translate(-1024.000000, -5342.000000)" fill="#5A5B5C" fill-rule="nonzero">
            <g id="facebook" transform="translate(1024.000000, 5342.000000)">
                <path d="M17.2958924,0 L2.69374083,0 C1.20611247,0 9.7799511e-05,1.20596577 9.7799511e-05,2.69364303 L9.7799511e-05,17.2958924 C9.7799511e-05,18.7835697 1.20606357,19.9895355 2.69374083,19.9895355 L9.89545232,19.9895355 L9.90772616,12.846357 L8.05193154,12.846357 C7.81075795,12.846357 7.61501222,12.6513447 7.61408313,12.4101711 L7.60518337,10.1076284 C7.60425428,9.86513447 7.8005868,9.66806846 8.04308068,9.66806846 L9.89550122,9.66806846 L9.89550122,7.44322738 C9.89550122,4.86132029 11.4723716,3.45545232 13.775599,3.45545232 L15.6655746,3.45545232 C15.9073839,3.45545232 16.1034719,3.65149144 16.1034719,3.89334963 L16.1034719,5.83486553 C16.1034719,6.07662592 15.9075306,6.27261614 15.6658191,6.27276284 L14.5059658,6.27330073 C13.2533985,6.27330073 13.0108557,6.86850856 13.0108557,7.74200489 L13.0108557,9.66811736 L15.7631785,9.66811736 C16.0254279,9.66811736 16.2288998,9.89711491 16.1979951,10.157555 L15.9250856,12.4600978 C15.8989731,12.6804401 15.7121271,12.8464548 15.4902689,12.8464548 L13.0231296,12.8464548 L13.0108557,19.9896333 L17.2959902,19.9896333 C18.7836186,19.9896333 19.9895844,18.7836675 19.9895844,17.2960391 L19.9895844,2.69364303 C19.9895355,1.20596577 18.7835697,0 17.2958924,0 Z" id="Shape"></path>
            </g>
        </g>
    </g>
</svg>