<?xml version="1.0" encoding="UTF-8"?>
<svg width="17px" height="10px" viewBox="0 0 17 10" version="1.1" xmlns="http://www.w3.org/2000/svg" xmlns:xlink="http://www.w3.org/1999/xlink">
    <!-- Generator: sketchtool 50 (54983) - http://www.bohemiancoding.com/sketch -->
    <title>0944D687-53D4-488B-B5D0-230E4D46215B</title>
    <desc>Created with sketchtool.</desc>
    <defs></defs>
    <g id="Home" stroke="none" stroke-width="1" fill="none" fill-rule="evenodd" fill-opacity="0.5">
        <g id="Alfredo---Desktop" transform="translate(-986.000000, -3818.000000)" fill="#FFFFFF">
            <g id="Group-7" transform="translate(994.500000, 3823.000000) scale(-1, 1) rotate(-270.000000) translate(-994.500000, -3823.000000) translate(989.500000, 3814.500000)">
                <path d="M4.54958615,6.7977539 L6.04774305,8.4 L4.54958615,10.0022459 L0.626384062,14.0898325 C0.0321760295,14.7089382 0.0321760759,15.6865699 0.626384168,16.3056755 L0.650414878,16.3307131 C1.22681596,16.9312656 2.18092536,16.9508442 2.78147787,16.3744431 C2.79635216,16.360167 2.81093197,16.3455872 2.82520809,16.3307129 L9.37361653,9.50792128 C9.96782442,8.88881564 9.96782442,7.9111842 9.37361652,7.29207856 L2.8252081,0.469287055 C2.24880711,-0.131265555 1.2946977,-0.150844312 0.69414509,0.425556677 C0.679270798,0.439832789 0.664690993,0.454412592 0.650414878,0.469286882 L0.626384184,0.494324471 C0.0321760857,1.11343012 0.0321760468,2.09106178 0.626384096,2.71016748 L4.54958615,6.7977539 Z" id="Shape"></path>
            </g>
        </g>
    </g>
</svg>