<?xml version="1.0" encoding="UTF-8"?>
<svg width="73px" height="20px" viewBox="0 0 73 20" version="1.1" xmlns="http://www.w3.org/2000/svg" xmlns:xlink="http://www.w3.org/1999/xlink">
    <!-- Generator: sketchtool 50 (54983) - http://www.bohemiancoding.com/sketch -->
    <title>E138733B-42F1-4D9F-9DAE-A061237588FC</title>
    <desc>Created with sketchtool.</desc>
    <defs></defs>
    <g id="Home" stroke="none" stroke-width="1" fill="none" fill-rule="evenodd">
        <g id="Alfredo---Desktop" transform="translate(-100.000000, -51.000000)" fill="#E03342">
            <g id="Group-3" transform="translate(100.000000, 51.000000)">
                <path d="M4.67143258,5.31690077 L4.67143258,7.38029098 C5.89379673,6.69336589 6.90091677,6.19612466 7.69120418,5.89118222 C8.4814916,5.58784897 9.15422872,5.4347743 9.70663565,5.4347743 C10.8608921,5.4347743 11.7178973,5.85477418 12.2756654,6.69477394 C12.833235,7.53598059 13.1116227,8.8203193 13.1116227,10.5506062 L13.1116227,15.4302887 C13.1116227,16.3543689 13.1972041,17.1197422 13.3669769,17.7294259 C13.5367497,18.3391097 13.8109675,18.9636785 14.1896304,19.6017243 L8.42668775,19.6017243 C8.80515202,18.9528164 9.07797988,18.3173855 9.24795125,17.6928168 C9.41772405,17.068248 9.50330542,16.2554034 9.50330542,15.2528749 L9.50330542,11.8470138 C9.50330542,10.0694569 9.26542494,8.90439974 8.79045823,8.35445737 C8.3144987,7.8029058 7.42234761,7.52793462 6.1132107,7.52793462 C5.88982544,7.52793462 5.66107893,7.54020473 5.42855969,7.5645438 C5.19564333,7.59029092 4.94287049,7.63092309 4.67143258,7.69046331 L4.67143258,15.2528749 C4.67143258,16.2554034 4.76098525,17.068248 4.94148054,17.6928168 C5.12078444,18.3173855 5.39897356,18.9528164 5.77743783,19.6017243 L0,19.6017243 C0.378464274,18.9337072 0.655263433,18.2821844 0.830397478,17.6481616 C1.00434013,17.0139376 1.09270142,16.2161792 1.09270142,15.2528749 L1.09270142,10.6682785 C1.09270142,9.89204313 1.00434013,9.17253185 0.830397478,8.50873893 C0.655263433,7.84494602 0.378464274,7.17431403 0,6.49684296 L4.67143258,5.31690077 Z" id="Fill-1"></path>
                <path d="M19.2021375,5.31690077 L19.2021375,14.4712085 C19.2021375,15.6511507 19.4441878,16.4993976 19.9296785,17.0139376 C20.4149705,17.5302881 21.2054565,17.7889662 22.3021292,17.7889662 C22.534847,17.7889662 22.9667252,17.749742 23.5967709,17.6710926 C23.79057,17.6415237 23.9309553,17.6210064 24.0193165,17.6115524 L24.0340103,10.6682785 C24.0340103,9.89204313 23.9458476,9.17253185 23.7719049,8.50873893 C23.5967709,7.84494602 23.3160005,7.17431403 22.9280051,6.49684296 L27.6127415,5.31690077 L27.6127415,14.3247717 C27.6127415,15.3166393 27.7011028,16.1252597 27.8750454,16.7486216 C28.0501795,17.3731904 28.3269786,18.0152592 28.7042515,18.6724142 L24.0193165,19.8374713 L24.0193165,17.9068397 C22.9240338,18.5652016 21.9758874,19.0515807 21.1720976,19.3659772 C20.3683078,19.6801725 19.6701544,19.8374713 19.0804173,19.8374713 C17.9168283,19.8374713 17.0502921,19.4514657 16.4792201,18.6806613 C15.9081481,17.9096558 15.6220164,16.7363515 15.6220164,15.1647715 L15.6220164,10.6682785 C15.6220164,9.91095118 15.5324637,9.20109506 15.3531598,8.53871019 C15.1738559,7.87471613 14.8851428,7.19463012 14.4878149,6.49684296 L19.2021375,5.31690077 Z" id="Fill-3"></path>
                <path d="M34.8806058,5.31690077 L34.8806058,7.38029098 C36.0936374,6.68250383 37.0858651,6.18405569 37.857686,5.88454429 C38.6279184,5.58523403 39.2952942,5.4347743 39.8582251,5.4347743 C40.5176584,5.4347743 41.0994529,5.6095731 41.6036086,5.95776266 C42.1091543,6.30736026 42.5062836,6.81123942 42.7979751,7.4696013 C44.0390044,6.76115323 45.0848445,6.24621085 45.9341056,5.92115347 C46.7819768,5.59750414 47.5067379,5.4347743 48.1085874,5.4347743 C49.2733678,5.4347743 50.1200476,5.83848108 50.6482296,6.6432797 C51.1764117,7.44948637 51.4412969,8.75132507 51.4412969,10.5506062 L51.4412969,15.4302887 C51.4412969,16.3543689 51.5268783,17.1197422 51.6966511,17.7294259 C51.8652325,18.3391097 52.1394503,18.9636785 52.5179146,19.6017243 L46.7698644,19.6017243 C47.1389961,18.9528164 47.4078527,18.3173855 47.5776255,17.6928168 C47.7475968,17.068248 47.8329796,16.2554034 47.8329796,15.2528749 L47.8329796,11.8470138 C47.8329796,10.1372442 47.6165441,9.00054914 47.1844674,8.43431367 C46.7539792,7.8692851 45.9795769,7.58747483 44.8640406,7.58747483 C44.5242964,7.58747483 44.1940834,7.60235988 43.8745928,7.63092309 C43.5549037,7.6606932 43.2393844,7.70534836 42.9288293,7.76368168 C43.0066666,8.10784824 43.0640518,8.50592284 43.1027719,8.95850892 C43.1416906,9.40968695 43.1617456,9.94072128 43.1617456,10.5506062 L43.1617456,15.4302887 C43.1617456,16.3543689 43.245937,17.1197422 43.4157098,17.7294259 C43.5856812,18.3391097 43.859899,18.9636785 44.2383633,19.6017243 L38.4754207,19.6017243 C38.8540835,18.9528164 39.1283013,18.3173855 39.2980741,17.6928168 C39.4678469,17.068248 39.5520384,16.2554034 39.5520384,15.2528749 L39.5520384,11.8470138 C39.5520384,10.0789109 39.3246818,8.91666985 38.8687773,8.3610953 C38.4126742,7.80572189 37.5580519,7.52793462 36.3076901,7.52793462 C36.0843048,7.52793462 35.8555583,7.54020473 35.6228405,7.5645438 C35.3901227,7.59029092 35.1427112,7.62669896 34.8806058,7.67557825 L34.8806058,15.2528749 C34.8806058,16.2554034 34.9687685,17.068248 35.1427112,17.6928168 C35.3178452,18.3173855 35.593453,18.9528164 35.9719172,19.6017243 L30.1958694,19.6017243 C30.5836662,18.9337072 30.8644366,18.2821844 31.0395707,17.6481616 C31.2135133,17.0139376 31.3018746,16.2161792 31.3018746,15.2528749 L31.3018746,10.6682785 C31.3018746,9.89204313 31.2135133,9.17253185 31.0395707,8.50873893 C30.8644366,7.84494602 30.5836662,7.17431403 30.1958694,6.49684296 L34.8806058,5.31690077 Z" id="Fill-5"></path>
                <path d="M56.7636245,0 C57.501888,0 58.0475437,0.139597661 58.4019817,0.419999879 C58.7548311,0.699195201 58.9329436,1.129856 58.9329436,1.70976962 C58.9329436,2.28968325 58.7548311,2.71793025 58.4019817,2.99290144 C58.0475437,3.26787262 57.501888,3.40465419 56.7636245,3.40465419 C56.0078874,3.40465419 55.4542891,3.27048757 55.1052123,2.99953937 C54.7563342,2.72999922 54.5810016,2.29913727 54.5810016,1.70976962 C54.5810016,1.12040198 54.7575256,0.68692509 55.1119635,0.411953905 C55.4664015,0.136982719 56.0174185,0 56.7636245,0 Z" id="Fill-7"></path>
                <path d="M58.6120631,5.31698123 L58.6120631,15.2529554 C58.6120631,16.2554838 58.7002258,17.0683284 58.8739699,17.6928972 C59.0493025,18.3172649 59.3247117,18.9528969 59.703176,19.6016036 L53.9271281,19.6016036 C54.3149249,18.9337877 54.5956954,18.2822649 54.771028,17.6480409 C54.9447721,17.0140181 55.0331334,16.2160586 55.0331334,15.2529554 L55.0331334,10.668359 C55.0331334,9.89212359 54.9447721,9.17261231 54.771028,8.50881939 C54.5956954,7.84502648 54.3149249,7.17439449 53.9271281,6.49692342 L58.6120631,5.31698123 Z" id="Fill-7"></path>
                <path d="M72.8983349,12.0244276 L64.1372642,12.0244276 L64.1372642,12.2601746 C64.1372642,14.1081339 64.6173936,15.5103461 65.5776524,16.4694263 C66.5379112,17.4272996 67.9354094,17.9068397 69.768757,17.9068397 C70.1768074,17.9068397 70.6450229,17.8798857 71.173205,17.8257765 C71.701387,17.7714662 72.3111791,17.6902018 73,17.5817823 C72.1453776,18.3785349 71.2319801,18.9799716 70.2570276,19.3877013 C69.282075,19.7956322 68.2548999,20 67.1784808,20 C65.1416044,20 63.5139697,19.3565232 62.2969668,18.0681615 C61.0787725,16.7810067 60.4699732,15.0565531 60.4699732,12.8941974 C60.4699732,10.7020716 61.1079615,8.91103767 62.3839381,7.52109554 C63.6597162,6.12974537 65.3062145,5.4347743 67.3242273,5.4347743 C69.0507471,5.4347743 70.4123051,6.01046379 71.4059228,7.15942898 C72.4007318,8.30960106 72.8983349,9.88238796 72.8983349,11.8767839 L72.8983349,12.0244276 Z M69.085496,10.756382 C69.085496,9.45031912 68.8889169,8.43692861 68.4957589,7.72023341 C68.1026008,7.00233132 67.5476125,6.6432797 66.8294041,6.6432797 C65.9761717,6.6432797 65.3207097,7.05382556 64.8648052,7.87471613 C64.4087021,8.69580785 64.1706231,9.89727302 64.151958,11.4785082 L69.085496,10.756382 Z" id="Combined-Shape"></path>
            </g>
        </g>
    </g>
</svg>