<?xml version="1.0" encoding="UTF-8"?>
<svg width="20px" height="20px" viewBox="0 0 20 20" version="1.1" xmlns="http://www.w3.org/2000/svg" xmlns:xlink="http://www.w3.org/1999/xlink">
    <!-- Generator: sketchtool 50 (54983) - http://www.bohemiancoding.com/sketch -->
    <title>DC5D77EC-871A-4F4A-AF5E-D81F0B6BD05F</title>
    <desc>Created with sketchtool.</desc>
    <defs></defs>
    <g id="Home" stroke="none" stroke-width="1" fill="none" fill-rule="evenodd">
        <g id="Alfredo---Desktop" transform="translate(-940.000000, -5342.000000)" fill="#5A5B5C">
            <g id="instagram" transform="translate(940.000000, 5342.000000)">
                <path d="M5.8770129,0.0601779167 C4.8126296,0.108724583 4.0856937,0.27778625 3.44962,0.525007083 C2.7920317,0.780524167 2.2343558,1.12245708 1.6783867,1.67838667 C1.1224571,2.23435583 0.7805242,2.79203167 0.5250071,3.44962 C0.2777863,4.08569375 0.1087246,4.81262958 0.0601779,5.87701292 C0.0115117,6.94361917 0,7.28416292 0,10.00002 C0,12.7158371 0.0115117,13.0563808 0.0601779,14.1229871 C0.1087246,15.1873704 0.2777863,15.9143062 0.5250071,16.55038 C0.7805242,17.2079683 1.1224571,17.7656442 1.6783867,18.3216133 C2.2343558,18.8775429 2.7920317,19.2194758 3.44962,19.4750329 C4.0856937,19.7222138 4.8126296,19.8912754 5.8770129,19.9398221 C6.9436192,19.9884883 7.2841629,20 10.00002,20 C12.7158371,20 13.0563808,19.9884883 14.1229871,19.9398221 C15.1873704,19.8912754 15.9143063,19.7222138 16.55038,19.4750329 C17.2079683,19.2194758 17.7656442,18.8775429 18.3216133,18.3216133 C18.8775429,17.7656442 19.2194758,17.2079683 19.4750329,16.55038 C19.7222137,15.9143062 19.8912754,15.1873704 19.9398221,14.1229871 C19.9884883,13.0563808 20,12.7158371 20,10.00002 C20,7.28416292 19.9884883,6.94361917 19.9398221,5.87701292 C19.8912754,4.81262958 19.7222137,4.08569375 19.4750329,3.44962 C19.2194758,2.79203167 18.8775429,2.23435583 18.3216133,1.67838667 C17.7656442,1.12245708 17.2079683,0.780524167 16.55038,0.525007083 C15.9143063,0.27778625 15.1873704,0.108724583 14.1229871,0.0601779167 C13.0563808,0.0115116667 12.7158371,0 10.00002,0 C7.2841629,0 6.9436192,0.0115116667 5.8770129,0.0601779167 Z M4.8648679,10.00002 C4.8648679,12.8360733 7.1639267,15.1351321 10.00002,15.1351321 C12.8360733,15.1351321 15.1351321,12.8360733 15.1351321,10.00002 C15.1351321,7.16392667 12.8360733,4.86486792 10.00002,4.86486792 C7.1639267,4.86486792 4.8648679,7.16392667 4.8648679,10.00002 Z M6.6666667,10.00002 C6.6666667,8.15904208 8.1590421,6.66666667 10.00002,6.66666667 C11.8409579,6.66666667 13.3333333,8.15904208 13.3333333,10.00002 C13.3333333,11.8409579 11.8409579,13.3333333 10.00002,13.3333333 C8.1590421,13.3333333 6.6666667,11.8409579 6.6666667,10.00002 Z M15.3380133,5.86196833 C14.6753042,5.86196833 14.1380317,5.32473542 14.1380317,4.66198667 C14.1380317,3.99923792 14.6753042,3.461965 15.3380133,3.461965 C16.0007621,3.461965 16.538035,3.99923792 16.538035,4.66198667 C16.538035,5.32473542 16.0007621,5.86196833 15.3380133,5.86196833 Z"></path>
            </g>
        </g>
    </g>
</svg>