<?xml version="1.0" encoding="UTF-8"?>
<svg width="18px" height="11px" viewBox="0 0 18 11" version="1.1" xmlns="http://www.w3.org/2000/svg" xmlns:xlink="http://www.w3.org/1999/xlink">
    <!-- Generator: sketchtool 50 (54983) - http://www.bohemiancoding.com/sketch -->
    <title>638877AE-3AD4-4CAE-A790-93D8723250F9</title>
    <desc>Created with sketchtool.</desc>
    <defs></defs>
    <g id="Home" stroke="none" stroke-width="1" fill="none" fill-rule="evenodd">
        <g id="Alfredo---Desktop" transform="translate(-1162.000000, -58.000000)" fill="#FFFFFF">
            <g id="Group-5" transform="translate(1019.000000, 36.000000)">
                <g id="Group-4" transform="translate(18.000000, 13.000000)">
                    <path d="M138.916049,13.2426406 L126,13.2426406 C125.447715,13.2426406 125,13.6903558 125,14.2426406 L125,14.2426406 C125,14.7949253 125.447715,15.2426406 126,15.2426406 L138.916049,15.2426406 L136.380514,17.7781744 C135.98999,18.1686986 135.98999,18.8018636 136.380514,19.1923879 C136.380514,19.192388 136.380514,19.192388 136.380514,19.1923881 L136.380515,19.1923881 C136.771039,19.5829123 137.404204,19.5829122 137.794728,19.192388 L142.037369,14.9497473 C142.427893,14.559223 142.427893,13.9260581 142.037369,13.5355338 L137.794728,9.29289323 C137.404204,8.90236897 136.771039,8.90236892 136.380515,9.29289312 L136.380514,9.29289313 C135.98999,9.68341736 135.98999,10.3165823 136.380514,10.7071067 C136.380514,10.7071067 136.380514,10.7071068 136.380514,10.7071068 L138.916049,13.2426406 Z" id="Shape"></path>
                </g>
            </g>
        </g>
    </g>
</svg>