<?xml version="1.0" encoding="UTF-8"?>
<svg width="24px" height="20px" viewBox="0 0 24 20" version="1.1" xmlns="http://www.w3.org/2000/svg" xmlns:xlink="http://www.w3.org/1999/xlink">
    <!-- Generator: sketchtool 50 (54983) - http://www.bohemiancoding.com/sketch -->
    <title>EB6D5DBD-A409-4B89-BA06-143C5AB2AD71</title>
    <desc>Created with sketchtool.</desc>
    <defs></defs>
    <g id="Home" stroke="none" stroke-width="1" fill="none" fill-rule="evenodd">
        <g id="Alfredo---Desktop" transform="translate(-980.000000, -5342.000000)" fill="#5A5B5C" fill-rule="nonzero">
            <g id="twitter" transform="translate(980.000000, 5342.000000)">
                <path d="M23.5697518,2.3497076 C23.0376058,2.58602339 22.4851971,2.77245614 21.918365,2.9074269 C22.5429489,2.31304094 23.0125547,1.56959064 23.2774891,0.739766082 C23.3531095,0.502865497 23.0961752,0.298011696 22.8825693,0.424853801 C22.0940146,0.893274854 21.2446131,1.24467836 20.3578978,1.4694152 C20.3064526,1.48245614 20.2533723,1.48906433 20.2001168,1.48906433 C20.0385985,1.48906433 19.8815766,1.42900585 19.758073,1.32 C18.8146569,0.487309942 17.6012847,0.0287134503 16.3415474,0.0287134503 C15.796438,0.0287134503 15.246073,0.11380117 14.7056934,0.281637427 C13.0314161,0.801695906 11.739562,2.18479532 11.3342482,3.89122807 C11.1821898,4.53128655 11.1410219,5.17192982 11.2117956,5.79532164 C11.2199124,5.86695906 11.1861022,5.91695906 11.1652555,5.94040936 C11.1286423,5.98152047 11.0767299,6.00508772 11.0228321,6.00508772 C11.0168175,6.00508772 11.0106277,6.00479532 11.0044964,6.00421053 C7.33956204,5.66321637 4.03468613,3.89497076 1.69862774,1.02526316 C1.57950365,0.878888889 1.35106569,0.896842105 1.25611679,1.05994152 C0.798656934,1.84590643 0.556905109,2.7448538 0.556905109,3.65959064 C0.556905109,5.06146199 1.11929927,6.3825731 2.09617518,7.34567251 C1.68537226,7.24812865 1.28776642,7.09450292 0.918423358,6.88906433 C0.739737226,6.78964912 0.519883212,6.9174269 0.517372263,7.12210526 C0.49179562,9.20467836 1.70931387,11.0577778 3.53319708,11.8922222 C3.49646715,11.8930994 3.45973723,11.8935088 3.42294891,11.8935088 C3.13383942,11.8935088 2.84110949,11.8655556 2.5529927,11.8104094 C2.35176642,11.7719298 2.18271533,11.9630994 2.24519708,12.1584795 C2.83719708,14.0094152 4.42855474,15.3737427 6.33290511,15.6835088 C4.75240876,16.7460234 2.91188321,17.3064912 0.996262774,17.3064912 L0.399065693,17.3061404 C0.215065693,17.3061404 0.0594452555,17.4262573 0.0125547445,17.6047368 C-0.0336350365,17.7805263 0.0514452555,17.9659649 0.208350365,18.0573684 C2.36694891,19.3154386 4.82913869,19.9803509 7.32981022,19.9803509 C9.51871533,19.9803509 11.5662482,19.5453216 13.4155912,18.6874269 C15.1109489,17.9009357 16.6091095,16.7766667 17.868438,15.345848 C19.0415766,14.0129825 19.9589489,12.4743275 20.5949781,10.7726901 C21.2012847,9.15064327 21.5217518,7.41988304 21.5217518,5.76748538 L21.5217518,5.68877193 C21.5216934,5.42345029 21.6415182,5.17380117 21.8505693,5.00385965 C22.643854,4.35883041 23.3346569,3.59953216 23.903708,2.74707602 C24.0539562,2.5219883 23.8169927,2.23988304 23.5697518,2.3497076 Z" id="Shape"></path>
            </g>
        </g>
    </g>
</svg>